<svg width="22" height="21" viewBox="0 0 22 21" fill="none" xmlns="http://www.w3.org/2000/svg">
<path fill-rule="evenodd" clip-rule="evenodd" d="M1.35178 20.4917H1.28537C1.28537 20.4586 1.26874 20.4087 1.26874 20.3919C1.26874 20.3754 1.26874 20.3423 1.21885 20.3423H1.11906V20.4917H1.06917V20.1427H1.21885C1.28537 20.1427 1.33514 20.1595 1.33514 20.2257C1.33514 20.2756 1.31851 20.2924 1.302 20.3088C1.31863 20.3255 1.33514 20.3422 1.33514 20.3754V20.4418C1.33514 20.4586 1.33514 20.4586 1.35178 20.4586V20.4917ZM1.28537 20.2425C1.28537 20.1926 1.25211 20.1926 1.23548 20.1926H1.11906V20.2924H1.21885C1.25211 20.2924 1.28537 20.2756 1.28537 20.2425V20.2425ZM1.56798 20.3089C1.56798 20.1096 1.40179 19.9431 1.18559 19.9431C0.986134 19.9431 0.819824 20.1096 0.819824 20.3089C0.819824 20.525 0.986134 20.6914 1.18559 20.6914C1.40167 20.6913 1.56798 20.525 1.56798 20.3089ZM1.51809 20.3089C1.51809 20.4918 1.36853 20.6248 1.18559 20.6248C1.00264 20.6248 0.869717 20.4917 0.869717 20.3089C0.869717 20.1427 1.00277 19.993 1.18559 19.993C1.36841 19.993 1.51809 20.1427 1.51809 20.3089ZM22 13.5925C22 14.0913 21.6842 14.3238 21.1188 14.3238H20.0384V13.825H21.1188C21.2186 13.825 21.3018 13.8085 21.3351 13.7753C21.3683 13.7419 21.4015 13.692 21.4015 13.6256C21.4015 13.559 21.3684 13.4926 21.3351 13.4594C21.3018 13.4261 21.2354 13.4096 21.1356 13.4096C20.6204 13.3928 19.9719 13.4261 19.9719 12.6947C19.9719 12.362 20.188 11.9963 20.7698 11.9963H21.8836V12.4951H20.8528C20.7533 12.4951 20.6867 12.4951 20.6368 12.5282C20.5869 12.5781 20.5537 12.628 20.5537 12.7112C20.5537 12.7943 20.6036 12.8442 20.67 12.8776C20.7367 12.8941 20.8032 12.9107 20.8863 12.9107H21.1855C21.5013 12.9107 21.7009 12.9771 21.834 13.0937C21.9335 13.21 22 13.3598 22 13.5925V13.5925ZM19.6559 13.0937C19.5228 12.9771 19.3233 12.9107 19.0074 12.9107H18.7083C18.6253 12.9107 18.5586 12.894 18.4922 12.8776C18.4256 12.8442 18.3759 12.7943 18.3759 12.7112C18.3759 12.628 18.3924 12.5781 18.4589 12.5282C18.5088 12.4951 18.5752 12.4951 18.675 12.4951H19.7058V11.9963H18.592C17.9934 11.9963 17.7938 12.362 17.7938 12.6947C17.7938 13.4259 18.4423 13.3928 18.9578 13.4096C19.0573 13.4096 19.1239 13.4261 19.1571 13.4594C19.1902 13.4926 19.2237 13.559 19.2237 13.6256C19.2237 13.692 19.1903 13.7419 19.1571 13.7753C19.1072 13.8085 19.0408 13.825 18.941 13.825H17.8603V14.3238H18.941C19.5061 14.3238 19.8221 14.0912 19.8221 13.5925C19.8221 13.3598 19.7557 13.21 19.6559 13.0937V13.0937ZM17.5278 13.8418H16.2147V13.3763H17.4947V12.911H16.2147V12.4786H17.5278V11.9965H15.666V14.3239H17.5278V13.8418ZM15.0674 12.1129C14.8845 12.0132 14.6684 11.9964 14.3858 11.9964H13.1058V14.3238H13.6709V13.476H14.2695C14.4688 13.476 14.5854 13.4927 14.6685 13.5757C14.7683 13.692 14.7683 13.8916 14.7683 14.0413V14.3238H15.3168V13.8749C15.3168 13.6588 15.3003 13.559 15.2337 13.4427C15.1838 13.376 15.0843 13.293 14.9512 13.2431C15.1007 13.1935 15.3503 12.9939 15.3503 12.628C15.3501 12.3622 15.2504 12.2125 15.0674 12.1129V12.1129ZM11.9087 11.9964H10.1298L9.41493 12.7612L8.7333 11.9964H6.48895V14.3238H8.70015L9.41505 13.559L10.0967 14.3238H11.1773V13.5426H11.8756C12.3577 13.5426 12.84 13.4096 12.84 12.7612C12.8398 12.1294 12.341 11.9964 11.9087 11.9964ZM14.6185 12.9608C14.5355 12.9939 14.4523 12.9939 14.3525 12.9939L13.6709 13.0106V12.4785H14.3525C14.4523 12.4785 14.5521 12.4785 14.6185 12.5283C14.6851 12.5617 14.7348 12.6281 14.7348 12.7279C14.7348 12.8277 14.6851 12.9109 14.6185 12.9608V12.9608ZM11.9087 13.0771H11.1772V12.4785H11.9087C12.1083 12.4785 12.2412 12.5617 12.2412 12.7612C12.2412 12.9608 12.1082 13.0771 11.9087 13.0771ZM9.76406 13.1601L10.6285 12.2459V14.1244L9.76406 13.1601ZM8.41743 13.8418H7.03753V13.3763H8.26775V12.911H7.03753V12.4786H8.43406L9.04916 13.1602L8.41743 13.8418V13.8418ZM20.4538 10.3173H19.6559L18.6085 8.57161V10.3173H17.4782L17.2619 9.80183H16.0982L15.8821 10.3173H15.2336C14.9676 10.3173 14.6185 10.2507 14.4192 10.0512C14.2362 9.85172 14.1364 9.58574 14.1364 9.17009C14.1364 8.82096 14.1863 8.50509 14.4356 8.25575C14.6018 8.0728 14.9011 7.98977 15.2834 7.98977H15.8153V8.48858H15.2834C15.0841 8.48858 14.9675 8.52184 14.8512 8.62163C14.7514 8.72141 14.7015 8.90423 14.7015 9.15358C14.7015 9.40292 14.7514 9.58586 14.8512 9.70228C14.9343 9.78532 15.0841 9.81858 15.2335 9.81858H15.483L16.2809 7.98989H17.1122L18.0432 10.1843V7.98977H18.9077L19.8886 9.60238V7.98977H20.4537V10.3173H20.4538V10.3173ZM13.8538 7.98977H13.2887V10.3173H13.8538V7.98977V7.98977ZM12.6734 8.08956C12.4905 7.98977 12.2911 7.98977 12.0085 7.98977H10.7283V10.3173H11.2769V9.46933H11.8754C12.0749 9.46933 12.208 9.48596 12.291 9.56911C12.3908 9.68553 12.374 9.8851 12.374 10.018V10.3173H12.9391V9.85172C12.9391 9.65227 12.9226 9.55248 12.8396 9.43607C12.7897 9.36954 12.6899 9.28639 12.5736 9.23661C12.7231 9.17009 12.9726 8.98727 12.9726 8.62151C12.9728 8.35553 12.8562 8.20585 12.6734 8.08956ZM10.3293 9.83521H9.03253V9.36966H10.3126V8.8876H9.03253V8.47195H10.3293V7.98989H8.46732V10.3174H10.3293V9.83521ZM8.05166 7.98977H7.13732L6.45569 9.56911L5.72417 7.98977H4.82645V10.1842L3.87885 7.98977H3.04766L2.05016 10.3173H2.64863L2.86472 9.80183H4.02841L4.24449 10.3173H5.37504V8.48858L6.18959 10.3173H6.67165L7.48633 8.48858V10.3173H8.05154V7.98977H8.05166ZM17.0625 9.30314L16.68 8.38879L16.2978 9.30314H17.0625ZM12.2412 8.9375C12.1582 8.98739 12.075 8.98739 11.9586 8.98739H11.2769V8.47207H11.9585C12.0583 8.47207 12.1745 8.47207 12.2411 8.50533C12.3075 8.55522 12.3409 8.62175 12.3409 8.72141C12.3409 8.82108 12.3076 8.90411 12.2412 8.9375V8.9375ZM3.06417 9.30314L3.44656 8.38879L3.82895 9.30314H3.06417V9.30314ZM21.8671 0.691406H2.03341V9.07042L2.71504 7.52434H4.16133L4.3609 7.90674V7.52434H6.05667L6.43906 8.35553L6.80482 7.52434H12.208C12.4572 7.52434 12.6733 7.57424 12.8397 7.70716V7.52434H14.3193V7.70716C14.5685 7.57411 14.8844 7.52434 15.2502 7.52434H17.3948L17.5944 7.90674V7.52434H19.1737L19.4065 7.90674V7.52434H20.9525V10.7828H19.3899L19.0908 10.2841V10.7828H17.1456L16.9295 10.2509H16.4472L16.2311 10.7828H15.2171C14.8181 10.7828 14.5187 10.683 14.3194 10.5834V10.7828H11.9087V10.0347C11.9087 9.93488 11.8921 9.91824 11.8256 9.91824H11.7425V10.7827H7.08743V10.367L6.92124 10.7827H5.94037L5.77418 10.3837V10.7827H3.89548L3.69603 10.2507H3.21385L2.99776 10.7827H2.03341V20.6081H21.8671V14.6396C21.651 14.7394 21.3517 14.7893 21.0524 14.7893H19.606V14.5898C19.4398 14.7229 19.1405 14.7893 18.858 14.7893H14.3026V14.0413C14.3026 13.9415 14.2861 13.9415 14.2029 13.9415H14.1198V14.7893H12.6235V13.9082C12.3743 14.0245 12.0916 14.0245 11.8422 14.0245H11.6759V14.7893H9.84721L9.41505 14.2905L8.93299 14.7893H5.99014V11.531H8.98264L9.41493 12.0295L9.88047 11.531H11.8921C12.1247 11.531 12.5072 11.5641 12.6734 11.7303V11.531H14.4688C14.6518 11.531 15.001 11.5641 15.2336 11.7303V11.531H17.9435V11.7304C18.0932 11.5974 18.3759 11.5311 18.6251 11.5311H20.138V11.7304C20.3044 11.6141 20.537 11.5311 20.8363 11.5311H21.8671V0.691406V0.691406Z" fill="#EEEEEE"/>
</svg>
