<svg width="32" height="21" viewBox="0 0 32 21" fill="none" xmlns="http://www.w3.org/2000/svg">
<path fill-rule="evenodd" clip-rule="evenodd" d="M9.96666 0.691406C4.53845 0.691406 0.15332 5.15658 0.15332 10.6913C0.15332 16.1994 4.51177 20.6647 9.96666 20.6647V20.6914H22.1867C27.6681 20.6914 32 16.226 32 10.6913C32 5.15658 27.5611 0.691406 22.0798 0.691406C22.1602 0.718086 10.0469 0.691406 9.96666 0.691406ZM9.96666 1.09259C15.2077 1.09259 19.379 5.37061 19.379 10.6913C19.379 16.0122 15.2075 20.2904 9.96666 20.2904C4.75248 20.2904 0.527625 16.0122 0.527625 10.6913C0.527625 5.37061 4.75248 1.09259 9.96666 1.09259ZM11.6244 17.2689V4.1139C14.5123 4.86251 16.6245 7.48284 16.6245 10.6913C16.6247 13.9 14.5125 16.547 11.6244 17.2689ZM8.33545 4.08722V17.2954C5.42086 16.5737 3.33511 13.9267 3.33511 10.6913C3.33511 7.48284 5.42086 4.80895 8.33545 4.08722Z" fill="#EEEEEE"/>
</svg>
