<svg width="143" height="21" viewBox="0 0 143 21" fill="none" xmlns="http://www.w3.org/2000/svg">
<path d="M1.40909 15V3.36362H5.34091C6.25379 3.36362 7 3.52839 7.57955 3.85794C8.16288 4.1837 8.5947 4.62498 8.875 5.1818C9.1553 5.73862 9.29545 6.35983 9.29545 7.04544C9.29545 7.73105 9.1553 8.35415 8.875 8.91476C8.59849 9.47536 8.17046 9.92233 7.59091 10.2557C7.01136 10.5852 6.26894 10.75 5.36364 10.75H2.54545V9.49998H5.31818C5.94318 9.49998 6.44508 9.39203 6.82386 9.17612C7.20265 8.96021 7.47727 8.66855 7.64773 8.30112C7.82197 7.92991 7.90909 7.51135 7.90909 7.04544C7.90909 6.57953 7.82197 6.16286 7.64773 5.79544C7.47727 5.42801 7.20076 5.14014 6.81818 4.9318C6.43561 4.71968 5.92803 4.61362 5.29545 4.61362H2.81818V15H1.40909ZM11.5653 15V3.36362H15.4972C16.4063 3.36362 17.1525 3.51892 17.7358 3.82953C18.3191 4.13635 18.7509 4.5587 19.0312 5.09658C19.3116 5.63445 19.4517 6.2462 19.4517 6.9318C19.4517 7.61741 19.3116 8.22536 19.0312 8.75567C18.7509 9.28597 18.321 9.70264 17.7415 10.0057C17.1619 10.3049 16.4214 10.4545 15.5199 10.4545H12.3381V9.1818H15.4744C16.0956 9.1818 16.5956 9.09089 16.9744 8.90908C17.357 8.72726 17.6335 8.46968 17.804 8.13635C17.9782 7.79923 18.0653 7.39771 18.0653 6.9318C18.0653 6.46589 17.9782 6.0587 17.804 5.71021C17.6297 5.36173 17.3513 5.09279 16.9688 4.90339C16.5862 4.71021 16.0805 4.61362 15.4517 4.61362H12.9744V15H11.5653ZM17.0426 9.77271L19.9062 15H18.2699L15.4517 9.77271H17.0426ZM31.6179 9.1818C31.6179 10.4091 31.3963 11.4697 30.9531 12.3636C30.5099 13.2576 29.902 13.947 29.1293 14.4318C28.3565 14.9167 27.474 15.1591 26.4815 15.1591C25.4891 15.1591 24.6065 14.9167 23.8338 14.4318C23.0611 13.947 22.4531 13.2576 22.0099 12.3636C21.5668 11.4697 21.3452 10.4091 21.3452 9.1818C21.3452 7.95453 21.5668 6.89392 22.0099 5.99998C22.4531 5.10605 23.0611 4.41665 23.8338 3.9318C24.6065 3.44695 25.4891 3.20453 26.4815 3.20453C27.474 3.20453 28.3565 3.44695 29.1293 3.9318C29.902 4.41665 30.5099 5.10605 30.9531 5.99998C31.3963 6.89392 31.6179 7.95453 31.6179 9.1818ZM30.2543 9.1818C30.2543 8.17423 30.0857 7.32385 29.7486 6.63067C29.4152 5.93748 28.9626 5.41286 28.3906 5.0568C27.8224 4.70074 27.1861 4.52271 26.4815 4.52271C25.777 4.52271 25.1387 4.70074 24.5668 5.0568C23.9986 5.41286 23.5459 5.93748 23.2088 6.63067C22.8755 7.32385 22.7088 8.17423 22.7088 9.1818C22.7088 10.1894 22.8755 11.0398 23.2088 11.7329C23.5459 12.4261 23.9986 12.9507 24.5668 13.3068C25.1387 13.6629 25.777 13.8409 26.4815 13.8409C27.1861 13.8409 27.8224 13.6629 28.3906 13.3068C28.9626 12.9507 29.4152 12.4261 29.7486 11.7329C30.0857 11.0398 30.2543 10.1894 30.2543 9.1818ZM32.4403 3.36362H34.054L37.2812 8.79544H37.4176L40.6449 3.36362H42.2585L38.054 10.2045V15H36.6449V10.2045L32.4403 3.36362ZM44.081 15V3.36362H51.1037V4.61362H45.4901V8.54544H50.7401V9.79544H45.4901V13.75H51.1946V15H44.081ZM63.0071 6.99998H61.598C61.5147 6.59468 61.3688 6.23862 61.1605 5.9318C60.956 5.62498 60.706 5.36741 60.4105 5.15908C60.1188 4.94695 59.795 4.78786 59.4389 4.6818C59.0829 4.57574 58.7116 4.52271 58.3253 4.52271C57.6207 4.52271 56.9825 4.70074 56.4105 5.0568C55.8423 5.41286 55.3897 5.93748 55.0526 6.63067C54.7192 7.32385 54.5526 8.17423 54.5526 9.1818C54.5526 10.1894 54.7192 11.0398 55.0526 11.7329C55.3897 12.4261 55.8423 12.9507 56.4105 13.3068C56.9825 13.6629 57.6207 13.8409 58.3253 13.8409C58.7116 13.8409 59.0829 13.7879 59.4389 13.6818C59.795 13.5757 60.1188 13.4185 60.4105 13.2102C60.706 12.9981 60.956 12.7386 61.1605 12.4318C61.3688 12.1212 61.5147 11.7651 61.598 11.3636H63.0071C62.901 11.9583 62.7079 12.4905 62.4276 12.9602C62.1473 13.4299 61.7988 13.8295 61.3821 14.1591C60.9654 14.4848 60.4976 14.7329 59.9787 14.9034C59.4635 15.0738 58.9124 15.1591 58.3253 15.1591C57.3329 15.1591 56.4503 14.9167 55.6776 14.4318C54.9048 13.947 54.2969 13.2576 53.8537 12.3636C53.4105 11.4697 53.1889 10.4091 53.1889 9.1818C53.1889 7.95453 53.4105 6.89392 53.8537 5.99998C54.2969 5.10605 54.9048 4.41665 55.6776 3.9318C56.4503 3.44695 57.3329 3.20453 58.3253 3.20453C58.9124 3.20453 59.4635 3.28976 59.9787 3.46021C60.4976 3.63067 60.9654 3.88067 61.3821 4.21021C61.7988 4.53597 62.1473 4.9337 62.4276 5.40339C62.7079 5.8693 62.901 6.4015 63.0071 6.99998ZM64.6477 4.61362V3.36362H73.375V4.61362H69.7159V15H68.3068V4.61362H64.6477ZM84.8835 9.1818C84.8835 10.4091 84.6619 11.4697 84.2188 12.3636C83.7756 13.2576 83.1676 13.947 82.3949 14.4318C81.6222 14.9167 80.7396 15.1591 79.7472 15.1591C78.7547 15.1591 77.8722 14.9167 77.0994 14.4318C76.3267 13.947 75.7188 13.2576 75.2756 12.3636C74.8324 11.4697 74.6108 10.4091 74.6108 9.1818C74.6108 7.95453 74.8324 6.89392 75.2756 5.99998C75.7188 5.10605 76.3267 4.41665 77.0994 3.9318C77.8722 3.44695 78.7547 3.20453 79.7472 3.20453C80.7396 3.20453 81.6222 3.44695 82.3949 3.9318C83.1676 4.41665 83.7756 5.10605 84.2188 5.99998C84.6619 6.89392 84.8835 7.95453 84.8835 9.1818ZM83.5199 9.1818C83.5199 8.17423 83.3513 7.32385 83.0142 6.63067C82.6809 5.93748 82.2282 5.41286 81.6562 5.0568C81.0881 4.70074 80.4517 4.52271 79.7472 4.52271C79.0426 4.52271 78.4044 4.70074 77.8324 5.0568C77.2642 5.41286 76.8116 5.93748 76.4744 6.63067C76.1411 7.32385 75.9744 8.17423 75.9744 9.1818C75.9744 10.1894 76.1411 11.0398 76.4744 11.7329C76.8116 12.4261 77.2642 12.9507 77.8324 13.3068C78.4044 13.6629 79.0426 13.8409 79.7472 13.8409C80.4517 13.8409 81.0881 13.6629 81.6562 13.3068C82.2282 12.9507 82.6809 12.4261 83.0142 11.7329C83.3513 11.0398 83.5199 10.1894 83.5199 9.1818Z" fill="#959595"/>
<path d="M86.8551 15V3.36362H91.446C92.3286 3.36362 93.0805 3.53218 93.7017 3.8693C94.3229 4.20264 94.7964 4.66665 95.1222 5.26135C95.4517 5.85226 95.6165 6.53408 95.6165 7.3068C95.6165 8.07953 95.4498 8.76135 95.1165 9.35226C94.7831 9.94317 94.3002 10.4034 93.6676 10.7329C93.0388 11.0625 92.2775 11.2273 91.3835 11.2273H88.4574V9.25567H90.9858C91.4593 9.25567 91.8494 9.17423 92.1562 9.01135C92.4669 8.84468 92.6979 8.61551 92.8494 8.32385C93.0047 8.02839 93.0824 7.68938 93.0824 7.3068C93.0824 6.92044 93.0047 6.58332 92.8494 6.29544C92.6979 6.00377 92.4669 5.77839 92.1562 5.6193C91.8456 5.45642 91.4517 5.37498 90.9744 5.37498H89.3153V15H86.8551ZM97.8764 15H95.2401L99.2571 3.36362H102.428L106.439 15H103.803L100.888 6.02271H100.797L97.8764 15ZM97.7116 10.4261H103.939V12.3466H97.7116V10.4261ZM105.97 3.36362H108.726L111.379 8.37498H111.493L114.146 3.36362H116.902L112.658 10.8863V15H110.214V10.8863L105.97 3.36362Z" fill="white"/>
<path fill-rule="evenodd" clip-rule="evenodd" d="M127.203 13.8617L127.199 13.8662L127.196 13.8707C127.018 14.1227 126.62 14.1968 126.308 13.9765C126.058 13.8002 125.983 13.4074 126.196 13.097C126.513 12.6927 126.743 12.2201 126.894 11.7581C127.052 11.2771 127.125 10.7305 127.122 10.1944C127.119 9.65838 127.04 9.11262 126.878 8.63333C126.722 8.17295 126.486 7.7028 126.165 7.30194C125.949 6.99377 126.02 6.60017 126.268 6.42122C126.577 6.19769 126.976 6.26749 127.157 6.51761L127.16 6.5221L127.164 6.5265C127.564 7.05405 127.892 7.64018 128.088 8.21523C128.294 8.89171 128.426 9.54608 128.429 10.1875C128.433 10.8624 128.368 11.5013 128.121 12.1302C127.851 12.8151 127.59 13.34 127.203 13.8617ZM130.095 15.1145L130.103 15.1034L130.11 15.0919C130.997 13.6713 131.509 11.957 131.499 10.1711C131.489 8.3857 130.96 6.67737 130.059 5.26646C129.863 4.95669 129.951 4.59045 130.28 4.35261C130.502 4.19288 130.917 4.24944 131.163 4.57952C132.181 6.19416 132.795 8.146 132.806 10.1642C132.817 12.2512 132.224 14.1397 131.222 15.7661C130.991 16.085 130.636 16.1743 130.33 15.9936C129.999 15.7507 129.938 15.337 130.095 15.1145ZM135.286 2.45724L135.295 2.47449L135.305 2.49097C136.684 4.73919 137.45 7.33243 137.465 10.1394C137.48 12.945 136.742 15.5451 135.388 17.8072C135.181 18.1409 134.83 18.235 134.475 18.0697C134.152 17.859 134.065 17.5098 134.234 17.1571C135.385 15.1125 136.101 12.703 136.088 10.1467C136.074 7.60176 135.408 5.19618 134.157 3.15136C133.988 2.80221 134.071 2.45448 134.391 2.24137C134.776 2.05725 135.152 2.1922 135.286 2.45724ZM139.369 0.317663L139.375 0.329447L139.382 0.340883C141.053 3.22941 142.035 6.53184 142.054 10.1149C142.073 13.6943 141.128 17.0039 139.491 19.9079C139.283 20.2378 138.934 20.3302 138.581 20.1656C138.259 19.9556 138.171 19.608 138.338 19.2564C139.915 16.5648 140.764 13.4463 140.747 10.1219C140.729 6.78887 139.772 3.68251 138.243 1.0174C138.051 0.628355 138.186 0.247321 138.454 0.111831C138.846 -0.0870443 139.232 0.0479557 139.369 0.317663Z" fill="white"/>
</svg>
